<svg width="224" height="170" viewBox="0 0 224 170" fill="none" xmlns="http://www.w3.org/2000/svg">
<g filter="url(#filter0_d_2_177)">
<rect x="25" y="25" width="174" height="120" rx="35" fill="white"/>
</g>
<path d="M56.276 65.684V81.092H61.1C61.64 79.472 62.972 78.32 65.06 78.32C67.904 78.32 69.38 79.94 69.38 82.892C69.38 85.664 68.048 87.752 65.096 87.752C62.648 87.752 61.172 86.42 60.74 84.584H55.844C56.276 88.868 59.516 92 65.168 92C71.144 92 74.24 88.184 74.24 82.82C74.24 78.752 72.152 74.144 66.032 74.144C63.836 74.144 61.856 75.08 60.884 76.268V70.112H72.548V65.684H56.276ZM78.076 78.536C78.076 86.204 80.38 91.928 87.796 91.928C95.212 91.928 97.516 86.204 97.516 78.536C97.516 70.94 95.212 65.252 87.796 65.252C80.38 65.252 78.076 70.94 78.076 78.536ZM92.548 78.536C92.548 83.216 92.044 87.248 87.796 87.248C83.548 87.248 83.044 83.216 83.044 78.536C83.044 74.036 83.548 69.932 87.796 69.932C92.044 69.932 92.548 74.036 92.548 78.536ZM101.349 78.536C101.349 86.204 103.653 91.928 111.069 91.928C118.485 91.928 120.789 86.204 120.789 78.536C120.789 70.94 118.485 65.252 111.069 65.252C103.653 65.252 101.349 70.94 101.349 78.536ZM115.821 78.536C115.821 83.216 115.317 87.248 111.069 87.248C106.821 87.248 106.317 83.216 106.317 78.536C106.317 74.036 106.821 69.932 111.069 69.932C115.317 69.932 115.821 74.036 115.821 78.536ZM124.623 78.536C124.623 86.204 126.927 91.928 134.343 91.928C141.759 91.928 144.063 86.204 144.063 78.536C144.063 70.94 141.759 65.252 134.343 65.252C126.927 65.252 124.623 70.94 124.623 78.536ZM139.095 78.536C139.095 83.216 138.591 87.248 134.343 87.248C130.095 87.248 129.591 83.216 129.591 78.536C129.591 74.036 130.095 69.932 134.343 69.932C138.591 69.932 139.095 74.036 139.095 78.536ZM155.744 70.004V76.988H148.94V81.38H155.744V88.364H160.496V81.38H167.3V76.988H160.496V70.004H155.744Z" fill="#3E86F5"/>
<path d="M79.802 99.418V100.462H76.31V112H75.05V100.462H71.54V99.418H79.802ZM87.4436 112.126C86.2796 112.126 85.2236 111.856 84.2756 111.316C83.3276 110.764 82.5776 110.002 82.0256 109.03C81.4856 108.046 81.2156 106.936 81.2156 105.7C81.2156 104.464 81.4856 103.36 82.0256 102.388C82.5776 101.404 83.3276 100.642 84.2756 100.102C85.2236 99.55 86.2796 99.274 87.4436 99.274C88.6196 99.274 89.6816 99.55 90.6296 100.102C91.5776 100.642 92.3216 101.404 92.8616 102.388C93.4016 103.36 93.6716 104.464 93.6716 105.7C93.6716 106.936 93.4016 108.046 92.8616 109.03C92.3216 110.002 91.5776 110.764 90.6296 111.316C89.6816 111.856 88.6196 112.126 87.4436 112.126ZM87.4436 111.028C88.3796 111.028 89.2196 110.812 89.9636 110.38C90.7076 109.948 91.2956 109.33 91.7276 108.526C92.1596 107.71 92.3756 106.768 92.3756 105.7C92.3756 104.632 92.1596 103.696 91.7276 102.892C91.2956 102.088 90.7076 101.47 89.9636 101.038C89.2196 100.606 88.3796 100.39 87.4436 100.39C86.5076 100.39 85.6676 100.606 84.9236 101.038C84.1796 101.47 83.5916 102.088 83.1596 102.892C82.7276 103.696 82.5116 104.632 82.5116 105.7C82.5116 106.768 82.7276 107.71 83.1596 108.526C83.5916 109.33 84.1796 109.948 84.9236 110.38C85.6676 110.812 86.5076 111.028 87.4436 111.028ZM97.1831 99.418V107.338C97.1831 108.586 97.4771 109.51 98.0651 110.11C98.6651 110.71 99.4811 111.01 100.513 111.01C101.545 111.01 102.349 110.716 102.925 110.128C103.513 109.528 103.807 108.598 103.807 107.338V99.418H105.067V107.32C105.067 108.916 104.641 110.116 103.789 110.92C102.949 111.724 101.851 112.126 100.495 112.126C99.1391 112.126 98.0351 111.724 97.1831 110.92C96.3431 110.116 95.9231 108.916 95.9231 107.32V99.418H97.1831ZM114.574 112L111.46 106.744H109.138V112H107.878V99.418H111.658C113.062 99.418 114.124 99.754 114.844 100.426C115.576 101.098 115.941 101.98 115.941 103.072C115.941 103.984 115.678 104.764 115.15 105.412C114.634 106.048 113.866 106.462 112.846 106.654L116.086 112H114.574ZM109.138 105.718H111.676C112.66 105.718 113.398 105.478 113.89 104.998C114.394 104.518 114.646 103.876 114.646 103.072C114.646 102.244 114.406 101.608 113.926 101.164C113.446 100.708 112.69 100.48 111.658 100.48H109.138V105.718ZM119.702 99.418V112H118.442V99.418H119.702ZM126.371 112.126C125.543 112.126 124.811 111.982 124.175 111.694C123.551 111.406 123.059 111.004 122.699 110.488C122.339 109.972 122.147 109.396 122.123 108.76H123.455C123.515 109.372 123.785 109.912 124.265 110.38C124.745 110.836 125.447 111.064 126.371 111.064C127.223 111.064 127.895 110.848 128.387 110.416C128.891 109.972 129.143 109.414 129.143 108.742C129.143 108.202 129.005 107.77 128.729 107.446C128.453 107.11 128.111 106.864 127.703 106.708C127.295 106.54 126.731 106.36 126.011 106.168C125.171 105.94 124.505 105.718 124.013 105.502C123.521 105.286 123.101 104.95 122.753 104.494C122.405 104.038 122.231 103.42 122.231 102.64C122.231 101.992 122.399 101.416 122.735 100.912C123.071 100.396 123.545 99.994 124.157 99.706C124.769 99.418 125.471 99.274 126.263 99.274C127.427 99.274 128.363 99.562 129.071 100.138C129.791 100.702 130.205 101.434 130.313 102.334H128.945C128.861 101.818 128.579 101.362 128.099 100.966C127.619 100.558 126.971 100.354 126.155 100.354C125.399 100.354 124.769 100.558 124.265 100.966C123.761 101.362 123.509 101.908 123.509 102.604C123.509 103.132 123.647 103.558 123.923 103.882C124.199 104.206 124.541 104.452 124.949 104.62C125.369 104.788 125.933 104.968 126.641 105.16C127.457 105.388 128.117 105.616 128.621 105.844C129.125 106.06 129.551 106.396 129.899 106.852C130.247 107.308 130.421 107.92 130.421 108.688C130.421 109.276 130.265 109.834 129.953 110.362C129.641 110.89 129.179 111.316 128.567 111.64C127.955 111.964 127.223 112.126 126.371 112.126ZM140.218 99.418V100.462H136.726V112H135.466V100.462H131.956V99.418H140.218ZM146.024 112.126C145.196 112.126 144.464 111.982 143.828 111.694C143.204 111.406 142.712 111.004 142.352 110.488C141.992 109.972 141.8 109.396 141.776 108.76H143.108C143.168 109.372 143.438 109.912 143.918 110.38C144.398 110.836 145.1 111.064 146.024 111.064C146.876 111.064 147.548 110.848 148.04 110.416C148.544 109.972 148.796 109.414 148.796 108.742C148.796 108.202 148.658 107.77 148.382 107.446C148.106 107.11 147.764 106.864 147.356 106.708C146.948 106.54 146.384 106.36 145.664 106.168C144.824 105.94 144.158 105.718 143.666 105.502C143.174 105.286 142.754 104.95 142.406 104.494C142.058 104.038 141.884 103.42 141.884 102.64C141.884 101.992 142.052 101.416 142.388 100.912C142.724 100.396 143.198 99.994 143.81 99.706C144.422 99.418 145.124 99.274 145.916 99.274C147.08 99.274 148.016 99.562 148.724 100.138C149.444 100.702 149.858 101.434 149.966 102.334H148.598C148.514 101.818 148.232 101.362 147.752 100.966C147.272 100.558 146.624 100.354 145.808 100.354C145.052 100.354 144.422 100.558 143.918 100.966C143.414 101.362 143.162 101.908 143.162 102.604C143.162 103.132 143.3 103.558 143.576 103.882C143.852 104.206 144.194 104.452 144.602 104.62C145.022 104.788 145.586 104.968 146.294 105.16C147.11 105.388 147.77 105.616 148.274 105.844C148.778 106.06 149.204 106.396 149.552 106.852C149.9 107.308 150.074 107.92 150.074 108.688C150.074 109.276 149.918 109.834 149.606 110.362C149.294 110.89 148.832 111.316 148.22 111.64C147.608 111.964 146.876 112.126 146.024 112.126Z" fill="black"/>
<defs>
<filter id="filter0_d_2_177" x="0" y="0" width="224" height="170" filterUnits="userSpaceOnUse" color-interpolation-filters="sRGB">
<feFlood flood-opacity="0" result="BackgroundImageFix"/>
<feColorMatrix in="SourceAlpha" type="matrix" values="0 0 0 0 0 0 0 0 0 0 0 0 0 0 0 0 0 0 127 0" result="hardAlpha"/>
<feOffset/>
<feGaussianBlur stdDeviation="12.5"/>
<feComposite in2="hardAlpha" operator="out"/>
<feColorMatrix type="matrix" values="0 0 0 0 0 0 0 0 0 0 0 0 0 0 0 0 0 0 0.1 0"/>
<feBlend mode="normal" in2="BackgroundImageFix" result="effect1_dropShadow_2_177"/>
<feBlend mode="normal" in="SourceGraphic" in2="effect1_dropShadow_2_177" result="shape"/>
</filter>
</defs>
</svg>
