<svg width="148" height="67" viewBox="0 0 148 67" fill="none" xmlns="http://www.w3.org/2000/svg">
<path d="M2.21149 56.76H13.8755V54.48H6.26749C9.07549 51.912 13.3955 48.672 13.3955 44.424C13.3955 41.28 11.3795 39.144 7.82749 39.144C4.73149 39.144 2.28349 40.992 2.18749 44.784H4.82749C4.89949 42.816 5.93149 41.472 7.85149 41.472C9.89149 41.472 10.6835 42.72 10.6835 44.544C10.6835 47.976 6.33949 51.144 2.21149 54.768V56.76ZM16.2311 43.824H18.8951C19.0631 42.6 19.9511 41.448 21.8711 41.448C23.7431 41.448 24.7271 42.456 24.7271 43.968C24.7271 45.84 23.2151 46.56 20.7431 46.584H20.0951V48.84H20.7191C23.5751 48.84 25.0631 49.632 25.0631 51.936C25.0631 53.568 24.0551 54.816 22.0151 54.816C19.9511 54.816 18.7511 53.568 18.6311 51.936H15.9911C16.1591 55.368 18.7271 57.096 22.0391 57.096C25.6871 57.096 27.6551 54.984 27.6551 52.2C27.6551 49.776 26.4791 48.264 24.6551 47.712V47.616C26.0231 47.16 27.3431 45.744 27.3431 43.656C27.3431 41.112 25.4471 39.096 21.9671 39.096C18.7751 39.096 16.4231 40.8 16.2311 43.824ZM43.4594 52.344C43.4594 53.736 42.7634 54.744 41.2994 54.744C39.8354 54.744 39.1634 53.736 39.1394 52.344H36.3794C36.3794 55.368 38.4194 57.168 41.2994 57.168C44.1794 57.168 46.2194 55.368 46.2194 52.344V40.32H43.4594V52.344ZM49.7583 50.328C49.7583 54.408 52.5183 57.216 55.9503 57.216C58.1583 57.216 59.7423 56.16 60.5823 55.032V57H63.3423V43.776H60.5823V45.696C59.7663 44.616 58.2303 43.56 55.9983 43.56C52.5183 43.56 49.7583 46.248 49.7583 50.328ZM60.5823 50.376C60.5823 53.232 58.6383 54.84 56.5743 54.84C54.5343 54.84 52.5663 53.184 52.5663 50.328C52.5663 47.472 54.5343 45.936 56.5743 45.936C58.6383 45.936 60.5823 47.544 60.5823 50.376ZM76.3199 57H79.0319V49.2C79.0319 45.504 76.7039 43.56 73.6079 43.56C72.0239 43.56 70.5599 44.208 69.6719 45.288V43.776H66.9359V57H69.6719V49.608C69.6719 47.184 70.9919 45.936 73.0079 45.936C74.9999 45.936 76.3199 47.184 76.3199 49.608V57ZM80.8419 60.336H82.6179L85.5219 53.712H82.5459L80.8419 60.336ZM105.403 52.272C105.403 46.176 96.5709 48.528 96.5709 44.76C96.5709 43.152 97.7949 42.384 99.3789 42.432C101.107 42.48 102.091 43.512 102.187 44.64H105.211C104.971 41.784 102.715 40.104 99.5229 40.104C96.1149 40.104 93.7869 41.928 93.7869 44.856C93.7869 51 102.643 48.384 102.643 52.416C102.643 53.832 101.563 54.864 99.6429 54.864C97.7469 54.864 96.7869 53.76 96.6669 52.392H93.7389C93.7389 55.344 96.3069 57.168 99.6429 57.168C103.363 57.168 105.403 54.768 105.403 52.272ZM107.719 50.328C107.719 54.408 110.479 57.216 113.911 57.216C116.119 57.216 117.703 56.16 118.543 55.032V57H121.303V43.776H118.543V45.696C117.727 44.616 116.191 43.56 113.959 43.56C110.479 43.56 107.719 46.248 107.719 50.328ZM118.543 50.376C118.543 53.232 116.599 54.84 114.535 54.84C112.495 54.84 110.527 53.184 110.527 50.328C110.527 47.472 112.495 45.936 114.535 45.936C116.599 45.936 118.543 47.544 118.543 50.376ZM125.329 53.328C125.329 56.016 126.793 57 129.145 57H131.305V54.72H129.625C128.473 54.72 128.089 54.312 128.089 53.328V46.008H131.305V43.776H128.089V40.488H125.329V43.776H123.769V46.008H125.329V53.328Z" fill="black"/>
<path d="M2.33749 7.49V20H8.61949V18.344H4.38949V7.49H2.33749ZM14.5115 11.648C16.0415 11.648 17.2475 12.62 17.2835 14.15H11.7935C12.0095 12.584 13.1255 11.648 14.5115 11.648ZM19.1555 17.048H16.9415C16.5635 17.822 15.8615 18.434 14.6015 18.434C13.0895 18.434 11.9195 17.444 11.7755 15.806H19.3535C19.4075 15.464 19.4255 15.14 19.4255 14.798C19.4255 11.882 17.4275 9.92 14.6015 9.92C11.6675 9.92 9.65153 11.918 9.65153 15.032C9.65153 18.146 11.7575 20.162 14.6015 20.162C17.0315 20.162 18.5975 18.776 19.1555 17.048ZM20.7609 14.996C20.7609 18.056 22.8309 20.162 25.4049 20.162C27.0609 20.162 28.2489 19.37 28.8789 18.524V20H30.9489V10.082H28.8789V11.522C28.2669 10.712 27.1149 9.92 25.4409 9.92C22.8309 9.92 20.7609 11.936 20.7609 14.996ZM28.8789 15.032C28.8789 17.174 27.4209 18.38 25.8729 18.38C24.3429 18.38 22.8669 17.138 22.8669 14.996C22.8669 12.854 24.3429 11.702 25.8729 11.702C27.4209 11.702 28.8789 12.908 28.8789 15.032ZM32.4741 10.082L36.2361 20H38.6841L42.4641 10.082H40.2861L37.4781 18.164L34.6701 10.082H32.4741ZM48.1912 11.648C49.7212 11.648 50.9272 12.62 50.9632 14.15H45.4732C45.6892 12.584 46.8052 11.648 48.1912 11.648ZM52.8352 17.048H50.6212C50.2432 17.822 49.5412 18.434 48.2812 18.434C46.7692 18.434 45.5992 17.444 45.4552 15.806H53.0332C53.0872 15.464 53.1052 15.14 53.1052 14.798C53.1052 11.882 51.1072 9.92 48.2812 9.92C45.3472 9.92 43.3312 11.918 43.3312 15.032C43.3312 18.146 45.4372 20.162 48.2812 20.162C50.7112 20.162 52.2772 18.776 52.8352 17.048Z" fill="black" fill-opacity="0.5"/>
</svg>
