<svg width="224" height="170" viewBox="0 0 224 170" fill="none" xmlns="http://www.w3.org/2000/svg">
<g filter="url(#filter0_d_2_183)">
<rect x="25" y="25" width="174" height="120" rx="35" fill="white"/>
</g>
<path d="M74.788 92H79.972V65.756H71.296V70.4H74.788V92ZM86.319 65.684V81.092H91.143C91.683 79.472 93.015 78.32 95.103 78.32C97.947 78.32 99.423 79.94 99.423 82.892C99.423 85.664 98.091 87.752 95.139 87.752C92.691 87.752 91.215 86.42 90.783 84.584H85.887C86.319 88.868 89.559 92 95.211 92C101.187 92 104.283 88.184 104.283 82.82C104.283 78.752 102.195 74.144 96.075 74.144C93.879 74.144 91.899 75.08 90.927 76.268V70.112H102.591V65.684H86.319ZM108.119 78.536C108.119 86.204 110.423 91.928 117.839 91.928C125.255 91.928 127.559 86.204 127.559 78.536C127.559 70.94 125.255 65.252 117.839 65.252C110.423 65.252 108.119 70.94 108.119 78.536ZM122.591 78.536C122.591 83.216 122.087 87.248 117.839 87.248C113.591 87.248 113.087 83.216 113.087 78.536C113.087 74.036 113.591 69.932 117.839 69.932C122.087 69.932 122.591 74.036 122.591 78.536ZM139.24 70.004V76.988H132.436V81.38H139.24V88.364H143.992V81.38H150.796V76.988H143.992V70.004H139.24Z" fill="#3E86F5"/>
<path d="M90.782 99.418V112H89.522V106.114H82.7V112H81.44V99.418H82.7V105.07H89.522V99.418H90.782ZM99.3088 112.126C98.1448 112.126 97.0888 111.856 96.1408 111.316C95.1928 110.764 94.4428 110.002 93.8908 109.03C93.3508 108.046 93.0808 106.936 93.0808 105.7C93.0808 104.464 93.3508 103.36 93.8908 102.388C94.4428 101.404 95.1928 100.642 96.1408 100.102C97.0888 99.55 98.1448 99.274 99.3088 99.274C100.485 99.274 101.547 99.55 102.495 100.102C103.443 100.642 104.187 101.404 104.727 102.388C105.267 103.36 105.537 104.464 105.537 105.7C105.537 106.936 105.267 108.046 104.727 109.03C104.187 110.002 103.443 110.764 102.495 111.316C101.547 111.856 100.485 112.126 99.3088 112.126ZM99.3088 111.028C100.245 111.028 101.085 110.812 101.829 110.38C102.573 109.948 103.161 109.33 103.593 108.526C104.025 107.71 104.241 106.768 104.241 105.7C104.241 104.632 104.025 103.696 103.593 102.892C103.161 102.088 102.573 101.47 101.829 101.038C101.085 100.606 100.245 100.39 99.3088 100.39C98.3728 100.39 97.5328 100.606 96.7888 101.038C96.0448 101.47 95.4568 102.088 95.0248 102.892C94.5928 103.696 94.3768 104.632 94.3768 105.7C94.3768 106.768 94.5928 107.71 95.0248 108.526C95.4568 109.33 96.0448 109.948 96.7888 110.38C97.5328 110.812 98.3728 111.028 99.3088 111.028ZM115.204 99.418V100.462H111.712V112H110.452V100.462H106.942V99.418H115.204ZM118.454 100.444V105.142H123.224V106.186H118.454V110.956H123.764V112H117.194V99.4H123.764V100.444H118.454ZM127.507 110.974H132.025V112H126.247V99.418H127.507V110.974ZM137.639 112.126C136.811 112.126 136.079 111.982 135.443 111.694C134.819 111.406 134.327 111.004 133.967 110.488C133.607 109.972 133.415 109.396 133.391 108.76H134.723C134.783 109.372 135.053 109.912 135.533 110.38C136.013 110.836 136.715 111.064 137.639 111.064C138.491 111.064 139.163 110.848 139.655 110.416C140.159 109.972 140.411 109.414 140.411 108.742C140.411 108.202 140.273 107.77 139.997 107.446C139.721 107.11 139.379 106.864 138.971 106.708C138.563 106.54 137.999 106.36 137.279 106.168C136.439 105.94 135.773 105.718 135.281 105.502C134.789 105.286 134.369 104.95 134.021 104.494C133.673 104.038 133.499 103.42 133.499 102.64C133.499 101.992 133.667 101.416 134.003 100.912C134.339 100.396 134.813 99.994 135.425 99.706C136.037 99.418 136.739 99.274 137.531 99.274C138.695 99.274 139.631 99.562 140.339 100.138C141.059 100.702 141.473 101.434 141.581 102.334H140.213C140.129 101.818 139.847 101.362 139.367 100.966C138.887 100.558 138.239 100.354 137.423 100.354C136.667 100.354 136.037 100.558 135.533 100.966C135.029 101.362 134.777 101.908 134.777 102.604C134.777 103.132 134.915 103.558 135.191 103.882C135.467 104.206 135.809 104.452 136.217 104.62C136.637 104.788 137.201 104.968 137.909 105.16C138.725 105.388 139.385 105.616 139.889 105.844C140.393 106.06 140.819 106.396 141.167 106.852C141.515 107.308 141.689 107.92 141.689 108.688C141.689 109.276 141.533 109.834 141.221 110.362C140.909 110.89 140.447 111.316 139.835 111.64C139.223 111.964 138.491 112.126 137.639 112.126Z" fill="black"/>
<defs>
<filter id="filter0_d_2_183" x="0" y="0" width="224" height="170" filterUnits="userSpaceOnUse" color-interpolation-filters="sRGB">
<feFlood flood-opacity="0" result="BackgroundImageFix"/>
<feColorMatrix in="SourceAlpha" type="matrix" values="0 0 0 0 0 0 0 0 0 0 0 0 0 0 0 0 0 0 127 0" result="hardAlpha"/>
<feOffset/>
<feGaussianBlur stdDeviation="12.5"/>
<feComposite in2="hardAlpha" operator="out"/>
<feColorMatrix type="matrix" values="0 0 0 0 0 0 0 0 0 0 0 0 0 0 0 0 0 0 0.1 0"/>
<feBlend mode="normal" in2="BackgroundImageFix" result="effect1_dropShadow_2_183"/>
<feBlend mode="normal" in="SourceGraphic" in2="effect1_dropShadow_2_183" result="shape"/>
</filter>
</defs>
</svg>
