<svg width="230" height="170" viewBox="0 0 230 170" fill="none" xmlns="http://www.w3.org/2000/svg">
<g filter="url(#filter0_d_2_178)">
<rect x="25" y="25" width="180" height="120" rx="35" fill="white"/>
</g>
<path d="M70.98 72.668H75.912C76.092 71.012 77.136 69.428 79.584 69.428C81.888 69.428 83.148 70.652 83.148 72.704C83.148 75.296 80.988 76.124 78.036 76.124H76.992V80.264H78.036C81.78 80.264 83.652 81.344 83.652 84.296C83.652 86.384 82.356 87.968 79.836 87.968C77.136 87.968 75.624 86.348 75.516 84.08H70.62C70.836 89.588 74.76 92.18 79.944 92.18C85.452 92.18 88.476 89.012 88.476 84.728C88.476 81.164 86.712 79.004 84.048 78.176V78.032C85.956 77.384 88.008 75.368 88.008 72.092C88.008 68.204 85.128 65.144 79.728 65.144C74.688 65.144 71.232 67.808 70.98 72.668ZM92.4588 78.536C92.4588 86.204 94.7628 91.928 102.179 91.928C109.595 91.928 111.899 86.204 111.899 78.536C111.899 70.94 109.595 65.252 102.179 65.252C94.7628 65.252 92.4588 70.94 92.4588 78.536ZM106.931 78.536C106.931 83.216 106.427 87.248 102.179 87.248C97.9308 87.248 97.4268 83.216 97.4268 78.536C97.4268 74.036 97.9308 69.932 102.179 69.932C106.427 69.932 106.931 74.036 106.931 78.536ZM115.732 78.536C115.732 86.204 118.036 91.928 125.452 91.928C132.868 91.928 135.172 86.204 135.172 78.536C135.172 70.94 132.868 65.252 125.452 65.252C118.036 65.252 115.732 70.94 115.732 78.536ZM130.204 78.536C130.204 83.216 129.7 87.248 125.452 87.248C121.204 87.248 120.7 83.216 120.7 78.536C120.7 74.036 121.204 69.932 125.452 69.932C129.7 69.932 130.204 74.036 130.204 78.536ZM146.854 70.004V76.988H140.05V81.38H146.854V88.364H151.606V81.38H158.41V76.988H151.606V70.004H146.854Z" fill="#3E86F5"/>
<path d="M60.166 99.418C61.558 99.418 62.752 99.67 63.748 100.174C64.744 100.678 65.506 101.404 66.034 102.352C66.562 103.3 66.826 104.428 66.826 105.736C66.826 107.032 66.562 108.154 66.034 109.102C65.506 110.038 64.744 110.758 63.748 111.262C62.752 111.754 61.558 112 60.166 112H56.44V99.418H60.166ZM60.166 110.956C61.918 110.956 63.25 110.5 64.162 109.588C65.086 108.664 65.548 107.38 65.548 105.736C65.548 104.08 65.086 102.79 64.162 101.866C63.25 100.93 61.918 100.462 60.166 100.462H57.7V110.956H60.166ZM70.409 100.444V105.142H75.179V106.186H70.409V110.956H75.719V112H69.149V99.4H75.719V100.444H70.409ZM82.0177 112.126C81.1897 112.126 80.4577 111.982 79.8217 111.694C79.1977 111.406 78.7057 111.004 78.3457 110.488C77.9857 109.972 77.7937 109.396 77.7697 108.76H79.1017C79.1617 109.372 79.4317 109.912 79.9117 110.38C80.3917 110.836 81.0937 111.064 82.0177 111.064C82.8697 111.064 83.5417 110.848 84.0337 110.416C84.5377 109.972 84.7897 109.414 84.7897 108.742C84.7897 108.202 84.6517 107.77 84.3757 107.446C84.0997 107.11 83.7577 106.864 83.3497 106.708C82.9417 106.54 82.3777 106.36 81.6577 106.168C80.8177 105.94 80.1517 105.718 79.6597 105.502C79.1677 105.286 78.7477 104.95 78.3997 104.494C78.0517 104.038 77.8777 103.42 77.8777 102.64C77.8777 101.992 78.0457 101.416 78.3817 100.912C78.7177 100.396 79.1917 99.994 79.8037 99.706C80.4157 99.418 81.1177 99.274 81.9097 99.274C83.0737 99.274 84.0097 99.562 84.7177 100.138C85.4377 100.702 85.8517 101.434 85.9597 102.334H84.5917C84.5077 101.818 84.2257 101.362 83.7457 100.966C83.2657 100.558 82.6177 100.354 81.8017 100.354C81.0457 100.354 80.4157 100.558 79.9117 100.966C79.4077 101.362 79.1557 101.908 79.1557 102.604C79.1557 103.132 79.2937 103.558 79.5697 103.882C79.8457 104.206 80.1877 104.452 80.5957 104.62C81.0157 104.788 81.5797 104.968 82.2877 105.16C83.1037 105.388 83.7637 105.616 84.2677 105.844C84.7717 106.06 85.1977 106.396 85.5457 106.852C85.8937 107.308 86.0677 107.92 86.0677 108.688C86.0677 109.276 85.9117 109.834 85.5997 110.362C85.2877 110.89 84.8257 111.316 84.2137 111.64C83.6017 111.964 82.8697 112.126 82.0177 112.126ZM95.8645 99.418V100.462H92.3725V112H91.1125V100.462H87.6025V99.418H95.8645ZM99.1141 99.418V112H97.8541V99.418H99.1141ZM111.453 112H110.193L103.227 101.416V112H101.967V99.418H103.227L110.193 109.984V99.418H111.453V112ZM121.597 109.012H115.873L114.775 112H113.443L118.033 99.58H119.455L124.027 112H122.695L121.597 109.012ZM121.219 107.968L118.735 101.164L116.251 107.968H121.219ZM133.411 99.418V100.462H129.919V112H128.659V100.462H125.149V99.418H133.411ZM136.661 99.418V112H135.401V99.418H136.661ZM145.166 112.126C144.002 112.126 142.946 111.856 141.998 111.316C141.05 110.764 140.3 110.002 139.748 109.03C139.208 108.046 138.938 106.936 138.938 105.7C138.938 104.464 139.208 103.36 139.748 102.388C140.3 101.404 141.05 100.642 141.998 100.102C142.946 99.55 144.002 99.274 145.166 99.274C146.342 99.274 147.404 99.55 148.352 100.102C149.3 100.642 150.044 101.404 150.584 102.388C151.124 103.36 151.394 104.464 151.394 105.7C151.394 106.936 151.124 108.046 150.584 109.03C150.044 110.002 149.3 110.764 148.352 111.316C147.404 111.856 146.342 112.126 145.166 112.126ZM145.166 111.028C146.102 111.028 146.942 110.812 147.686 110.38C148.43 109.948 149.018 109.33 149.45 108.526C149.882 107.71 150.098 106.768 150.098 105.7C150.098 104.632 149.882 103.696 149.45 102.892C149.018 102.088 148.43 101.47 147.686 101.038C146.942 100.606 146.102 100.39 145.166 100.39C144.23 100.39 143.39 100.606 142.646 101.038C141.902 101.47 141.314 102.088 140.882 102.892C140.45 103.696 140.234 104.632 140.234 105.7C140.234 106.768 140.45 107.71 140.882 108.526C141.314 109.33 141.902 109.948 142.646 110.38C143.39 110.812 144.23 111.028 145.166 111.028ZM163.186 112H161.926L154.96 101.416V112H153.7V99.418H154.96L161.926 109.984V99.418H163.186V112ZM169.856 112.126C169.028 112.126 168.296 111.982 167.66 111.694C167.036 111.406 166.544 111.004 166.184 110.488C165.824 109.972 165.632 109.396 165.608 108.76H166.94C167 109.372 167.27 109.912 167.75 110.38C168.23 110.836 168.932 111.064 169.856 111.064C170.708 111.064 171.38 110.848 171.872 110.416C172.376 109.972 172.628 109.414 172.628 108.742C172.628 108.202 172.49 107.77 172.214 107.446C171.938 107.11 171.596 106.864 171.188 106.708C170.78 106.54 170.216 106.36 169.496 106.168C168.656 105.94 167.99 105.718 167.498 105.502C167.006 105.286 166.586 104.95 166.238 104.494C165.89 104.038 165.716 103.42 165.716 102.64C165.716 101.992 165.884 101.416 166.22 100.912C166.556 100.396 167.03 99.994 167.642 99.706C168.254 99.418 168.956 99.274 169.748 99.274C170.912 99.274 171.848 99.562 172.556 100.138C173.276 100.702 173.69 101.434 173.798 102.334H172.43C172.346 101.818 172.064 101.362 171.584 100.966C171.104 100.558 170.456 100.354 169.64 100.354C168.884 100.354 168.254 100.558 167.75 100.966C167.246 101.362 166.994 101.908 166.994 102.604C166.994 103.132 167.132 103.558 167.408 103.882C167.684 104.206 168.026 104.452 168.434 104.62C168.854 104.788 169.418 104.968 170.126 105.16C170.942 105.388 171.602 105.616 172.106 105.844C172.61 106.06 173.036 106.396 173.384 106.852C173.732 107.308 173.906 107.92 173.906 108.688C173.906 109.276 173.75 109.834 173.438 110.362C173.126 110.89 172.664 111.316 172.052 111.64C171.44 111.964 170.708 112.126 169.856 112.126Z" fill="black"/>
<defs>
<filter id="filter0_d_2_178" x="0" y="0" width="230" height="170" filterUnits="userSpaceOnUse" color-interpolation-filters="sRGB">
<feFlood flood-opacity="0" result="BackgroundImageFix"/>
<feColorMatrix in="SourceAlpha" type="matrix" values="0 0 0 0 0 0 0 0 0 0 0 0 0 0 0 0 0 0 127 0" result="hardAlpha"/>
<feOffset/>
<feGaussianBlur stdDeviation="12.5"/>
<feComposite in2="hardAlpha" operator="out"/>
<feColorMatrix type="matrix" values="0 0 0 0 0 0 0 0 0 0 0 0 0 0 0 0 0 0 0.1 0"/>
<feBlend mode="normal" in2="BackgroundImageFix" result="effect1_dropShadow_2_178"/>
<feBlend mode="normal" in="SourceGraphic" in2="effect1_dropShadow_2_178" result="shape"/>
</filter>
</defs>
</svg>
