<svg width="148" height="67" viewBox="0 0 148 67" fill="none" xmlns="http://www.w3.org/2000/svg">
<path d="M4.21209 57H6.97209V39.504H1.98009V42H4.21209V57ZM19.0827 57H21.7707V53.352H24.0027V50.976H21.7707V39.72H18.4587L10.3947 51.288V53.352H19.0827V57ZM13.5387 50.976L19.2027 42.504V50.976H13.5387ZM39.2001 52.344C39.2001 53.736 38.5041 54.744 37.0401 54.744C35.5761 54.744 34.9041 53.736 34.8801 52.344H32.1201C32.1201 55.368 34.1601 57.168 37.0401 57.168C39.9201 57.168 41.9601 55.368 41.9601 52.344V40.32H39.2001V52.344ZM45.499 50.328C45.499 54.408 48.259 57.216 51.691 57.216C53.899 57.216 55.483 56.16 56.323 55.032V57H59.083V43.776H56.323V45.696C55.507 44.616 53.971 43.56 51.739 43.56C48.259 43.56 45.499 46.248 45.499 50.328ZM56.323 50.376C56.323 53.232 54.379 54.84 52.315 54.84C50.275 54.84 48.307 53.184 48.307 50.328C48.307 47.472 50.275 45.936 52.315 45.936C54.379 45.936 56.323 47.544 56.323 50.376ZM72.0606 57H74.7726V49.2C74.7726 45.504 72.4446 43.56 69.3486 43.56C67.7646 43.56 66.3006 44.208 65.4126 45.288V43.776H62.6766V57H65.4126V49.608C65.4126 47.184 66.7326 45.936 68.7486 45.936C70.7406 45.936 72.0606 47.184 72.0606 49.608V57ZM76.5826 60.336H78.3586L81.2626 53.712H78.2866L76.5826 60.336ZM89.0236 42.552H93.4876V57H96.2236V42.552H100.664V40.32H89.0236V42.552ZM103.434 57H106.17V49.608C106.17 47.184 107.49 45.936 109.506 45.936C111.498 45.936 112.818 47.184 112.818 49.608V57H115.53V49.2C115.53 45.504 113.226 43.56 110.274 43.56C108.57 43.56 107.082 44.208 106.17 45.312V39.24H103.434V57ZM130.996 43.776H128.26V51.144C128.26 53.568 126.94 54.816 124.924 54.816C122.932 54.816 121.612 53.568 121.612 51.144V43.776H118.9V51.552C118.9 55.248 121.252 57.192 124.348 57.192C125.908 57.192 127.396 56.544 128.26 55.416V57H130.996V43.776Z" fill="black"/>
<path d="M8.89209 11.234C8.89209 12.476 8.17209 13.358 6.57009 13.358H4.30209V9.164H6.57009C8.17209 9.164 8.89209 9.974 8.89209 11.234ZM2.25009 7.49V20H4.30209V14.996H5.86809L8.74809 20H11.1961L8.10009 14.816C10.2061 14.294 10.9981 12.71 10.9981 11.234C10.9981 9.2 9.54009 7.49 6.57009 7.49H2.25009ZM17.7991 11.648C19.3291 11.648 20.5351 12.62 20.5711 14.15H15.0811C15.2971 12.584 16.4131 11.648 17.7991 11.648ZM22.4431 17.048H20.2291C19.8511 17.822 19.1491 18.434 17.8891 18.434C16.3771 18.434 15.2071 17.444 15.0631 15.806H22.6411C22.6951 15.464 22.7131 15.14 22.7131 14.798C22.7131 11.882 20.7151 9.92 17.8891 9.92C14.9551 9.92 12.9391 11.918 12.9391 15.032C12.9391 18.146 15.0451 20.162 17.8891 20.162C20.3191 20.162 21.8851 18.776 22.4431 17.048ZM25.0565 17.246C25.0565 19.262 26.1545 20 27.9185 20H29.5385V18.29H28.2785C27.4145 18.29 27.1265 17.984 27.1265 17.246V11.756H29.5385V10.082H27.1265V7.616H25.0565V10.082H23.8865V11.756H25.0565V17.246ZM40.4118 10.082H38.3598V15.608C38.3598 17.426 37.3698 18.362 35.8578 18.362C34.3638 18.362 33.3738 17.426 33.3738 15.608V10.082H31.3398V15.914C31.3398 18.686 33.1038 20.144 35.4258 20.144C36.5958 20.144 37.7118 19.658 38.3598 18.812V20H40.4118V10.082ZM45.1712 14.78C45.1712 12.674 46.1072 12.044 47.6192 12.044H48.1412V9.92C46.7372 9.92 45.7472 10.532 45.1712 11.522V10.082H43.1192V20H45.1712V14.78ZM57.0654 20H59.0994V14.15C59.0994 11.378 57.3534 9.92 55.0314 9.92C53.8434 9.92 52.7454 10.406 52.0794 11.216V10.082H50.0274V20H52.0794V14.456C52.0794 12.638 53.0694 11.702 54.5814 11.702C56.0754 11.702 57.0654 12.638 57.0654 14.456V20Z" fill="black" fill-opacity="0.5"/>
</svg>
